<?xml version="1.0" encoding="UTF-8" standalone="no"?>
<!DOCTYPE svg PUBLIC "-//W3C//DTD SVG 1.1//EN"
 "http://www.w3.org/Graphics/SVG/1.1/DTD/svg11.dtd">
<!-- Generated by graphviz version 14.0.5 (20251129.0259)
 -->
<!-- Title: FSM Pages: 1 -->
<svg width="6634pt" height="388pt"
 viewBox="0.00 0.00 6634.00 388.00" xmlns="http://www.w3.org/2000/svg" xmlns:xlink="http://www.w3.org/1999/xlink">
<g id="graph0" class="graph" transform="scale(1 1) rotate(0) translate(4 383.71)">
<title>FSM</title>
<polygon fill="white" stroke="none" points="-4,4 -4,-383.71 6629.86,-383.71 6629.86,4 -4,4"/>
<!-- start -->
<g id="node1" class="node">
<title>start</title>
<ellipse fill="black" stroke="black" cx="1.8" cy="-194.27" rx="1.8" ry="1.8"/>
</g>
<!-- q0 -->
<g id="node2" class="node">
<title>q0</title>
<ellipse fill="none" stroke="black" cx="67.6" cy="-194.27" rx="27" ry="18"/>
<text xml:space="preserve" text-anchor="middle" x="67.6" y="-189.22" font-family="Times New Roman,serif" font-size="14.00">q0</text>
</g>
<!-- start&#45;&gt;q0 -->
<g id="edge1" class="edge">
<title>start&#45;&gt;q0</title>
<path fill="none" stroke="black" d="M3.91,-194.27C7.21,-194.27 17.46,-194.27 28.73,-194.27"/>
<polygon fill="black" stroke="black" points="28.62,-197.77 38.62,-194.27 28.62,-190.77 28.62,-197.77"/>
</g>
<!-- q4 -->
<g id="node3" class="node">
<title>q4</title>
<ellipse fill="none" stroke="black" cx="3817.22" cy="-309.27" rx="20.13" ry="20.13"/>
<ellipse fill="none" stroke="black" cx="3817.22" cy="-309.27" rx="24.13" ry="24.13"/>
<text xml:space="preserve" text-anchor="middle" x="3817.22" y="-304.22" font-family="Times New Roman,serif" font-size="14.00">q4</text>
</g>
<!-- q0&#45;&gt;q4 -->
<g id="edge9" class="edge">
<title>q0&#45;&gt;q4</title>
<path fill="none" stroke="black" d="M74.19,-212C80.54,-228.81 92.69,-253.11 112.6,-264.27 450.15,-453.48 3427.25,-326.66 3781.76,-310.83"/>
<polygon fill="black" stroke="black" points="3781.69,-314.34 3791.53,-310.4 3781.38,-307.35 3781.69,-314.34"/>
<text xml:space="preserve" text-anchor="middle" x="606.48" y="-366.41" font-family="Times New Roman,serif" font-size="14.00">&#39;0&#39;,&#39;1&#39;,&#39;2&#39;,&#39;3&#39;,&#39;4&#39;,&#39;5&#39;,&#39;6&#39;,&#39;7&#39;,&#39;8&#39;,&#39;9&#39;,&#39;A&#39;,&#39;B&#39;,&#39;C&#39;,&#39;D&#39;,&#39;E&#39;,&#39;F&#39;,&#39;G&#39;,&#39;H&#39;,&#39;I&#39;,&#39;J&#39;,&#39;K&#39;,&#39;L&#39;,&#39;M&#39;,&#39;N&#39;,&#39;O&#39;,&#39;P&#39;,&#39;Q&#39;,&#39;R&#39;,&#39;S&#39;,&#39;T&#39;,&#39;U&#39;,&#39;V&#39;,&#39;W&#39;,&#39;X&#39;,&#39;Y&#39;,&#39;Z&#39;,&#39;_&#39;,&#39;a&#39;,&#39;b&#39;,&#39;c&#39;,&#39;d&#39;,&#39;e&#39;,&#39;f&#39;,&#39;g&#39;,&#39;h&#39;,&#39;i&#39;,&#39;j&#39;,&#39;k&#39;,&#39;l&#39;,&#39;m&#39;,&#39;n&#39;,&#39;o&#39;,&#39;p&#39;,&#39;q&#39;,&#39;r&#39;,&#39;s&#39;,&#39;t&#39;,&#39;u&#39;,&#39;v&#39;,&#39;w&#39;,&#39;x&#39;,&#39;y&#39;,&#39;z&#39;</text>
</g>
<!-- q5 -->
<g id="node4" class="node">
<title>q5</title>
<ellipse fill="none" stroke="black" cx="6601.73" cy="-169.27" rx="20.13" ry="20.13"/>
<ellipse fill="none" stroke="black" cx="6601.73" cy="-169.27" rx="24.13" ry="24.13"/>
<text xml:space="preserve" text-anchor="middle" x="6601.73" y="-164.22" font-family="Times New Roman,serif" font-size="14.00">q5</text>
</g>
<!-- q0&#45;&gt;q5 -->
<g id="edge2" class="edge">
<title>q0&#45;&gt;q5</title>
<path fill="none" stroke="black" d="M88.52,-206.04C95.83,-209.75 104.35,-213.37 112.6,-215.27 548.18,-315.71 671.34,-221.49 1118.35,-223.27 1268.29,-223.87 6372.17,-265.28 6516.1,-223.27 6537.5,-217.02 6558.64,-203.54 6574.44,-191.61"/>
<polygon fill="black" stroke="black" points="6576.18,-194.69 6581.9,-185.77 6571.87,-189.18 6576.18,-194.69"/>
<text xml:space="preserve" text-anchor="middle" x="3817.22" y="-245.27" font-family="Times New Roman,serif" font-size="14.00">0x01,0x02,0x03,0x04,0x05,0x06,0x07,0x08,0x0E,0x0F,0x10,0x11,0x12,0x13,0x14,0x15,0x16,0x17,0x18,0x19,0x1A,0x1B,0x1C,0x1D,0x1E,0x1F,&#39;&quot;&#39;,&#39;#&#39;,&#39;$&#39;,&#39;%&#39;,&#39;&amp;&#39;,&#39;&#39;&#39;,&#39;(&#39;,&#39;)&#39;,&#39;,&#39;,&#39;.&#39;,&#39;/&#39;,&#39;;&#39;,&#39;?&#39;,&#39;@&#39;,&#39;[&#39;,&#39;&#39;,&#39;]&#39;,&#39;^&#39;,&#39;`&#39;,&#39;{&#39;,&#39;|&#39;,&#39;}&#39;,&#39;~&#39;,0x7F,0x80,0x81,0x82,0x83,0x84,0x85,0x86,0x87,0x88,0x89,0x8A,0x8B,0x8C,0x8D,0x8E,0x8F,0x90,0x91,0x92,0x93,0x94,0x95,0x96,0x97,0x98,0x99,0x9A,0x9B,0x9C,0x9D,0x9E,0x9F,0xA0,0xA1,0xA2,0xA3,0xA4,0xA5,0xA6,0xA7,0xA8,0xA9,0xAA,0xAB,0xAC,0xAD,0xAE,0xAF,0xB0,0xB1,0xB2,0xB3,0xB4,0xB5,0xB6,0xB7,0xB8,0xB9,0xBA,0xBB,0xBC,0xBD,0xBE,0xBF,0xC0,0xC1,0xC2,0xC3,0xC4,0xC5,0xC6,0xC7,0xC8,0xC9,0xCA,0xCB,0xCC,0xCD,0xCE,0xCF,0xD0,0xD1,0xD2,0xD3,0xD4,0xD5,0xD6,0xD7,0xD8,0xD9,0xDA,0xDB,0xDC,0xDD,0xDE,0xDF,0xE0,0xE1,0xE2,0xE3,0xE4,0xE5,0xE6,0xE7,0xE8,0xE9,0xEA,0xEB,0xEC,0xED,0xEE,0xEF,0xF0,0xF1,0xF2,0xF3,0xF4,0xF5,0xF6,0xF7,0xF8,0xF9,0xFA,0xFB,0xFC,0xFD,0xFE,0xFF</text>
</g>
<!-- q1 -->
<g id="node5" class="node">
<title>q1</title>
<ellipse fill="none" stroke="black" cx="3817.22" cy="-194.27" rx="20.13" ry="20.13"/>
<text xml:space="preserve" text-anchor="middle" x="3817.22" y="-189.22" font-family="Times New Roman,serif" font-size="14.00">q1</text>
</g>
<!-- q0&#45;&gt;q1 -->
<g id="edge7" class="edge">
<title>q0&#45;&gt;q1</title>
<path fill="none" stroke="black" d="M95.04,-194.27C410.38,-194.27 3445.81,-194.27 3785.38,-194.27"/>
<polygon fill="black" stroke="black" points="3785.21,-197.77 3795.21,-194.27 3785.21,-190.77 3785.21,-197.77"/>
<text xml:space="preserve" text-anchor="middle" x="606.48" y="-197.47" font-family="Times New Roman,serif" font-size="14.00">&#39;&#45;&#39;</text>
</g>
<!-- q2 -->
<g id="node6" class="node">
<title>q2</title>
<ellipse fill="none" stroke="black" cx="3817.22" cy="-136.27" rx="20.13" ry="20.13"/>
<text xml:space="preserve" text-anchor="middle" x="3817.22" y="-131.22" font-family="Times New Roman,serif" font-size="14.00">q2</text>
</g>
<!-- q0&#45;&gt;q2 -->
<g id="edge5" class="edge">
<title>q0&#45;&gt;q2</title>
<path fill="none" stroke="black" d="M88.55,-182.79C95.87,-179.17 104.38,-175.63 112.6,-173.77 491.23,-87.88 3451.82,-130.67 3785.63,-135.79"/>
<polygon fill="black" stroke="black" points="3785.23,-139.29 3795.28,-135.94 3785.34,-132.29 3785.23,-139.29"/>
<text xml:space="preserve" text-anchor="middle" x="606.48" y="-176.97" font-family="Times New Roman,serif" font-size="14.00">&#39;+&#39;</text>
</g>
<!-- q3 -->
<g id="node7" class="node">
<title>q3</title>
<ellipse fill="none" stroke="black" cx="3817.22" cy="-78.27" rx="20.13" ry="20.13"/>
<text xml:space="preserve" text-anchor="middle" x="3817.22" y="-73.22" font-family="Times New Roman,serif" font-size="14.00">q3</text>
</g>
<!-- q0&#45;&gt;q3 -->
<g id="edge3" class="edge">
<title>q0&#45;&gt;q3</title>
<path fill="none" stroke="black" d="M71.72,-176.05C76.45,-154.75 87.67,-120.42 112.6,-104.77 441.52,101.68 3447.77,-57.91 3785.42,-76.55"/>
<polygon fill="black" stroke="black" points="3785.22,-80.04 3795.4,-77.1 3785.61,-73.05 3785.22,-80.04"/>
<text xml:space="preserve" text-anchor="middle" x="606.48" y="-107.97" font-family="Times New Roman,serif" font-size="14.00">&#39;*&#39;</text>
</g>
<!-- q4&#45;&gt;q4 -->
<g id="edge10" class="edge">
<title>q4&#45;&gt;q4</title>
<path fill="none" stroke="black" d="M3793.03,-309.78C3134.92,-323.98 3142.98,-351.4 3817.22,-351.4 4487.52,-351.4 4499.42,-324.3 3852.92,-310.03"/>
<polygon fill="black" stroke="black" points="3853.01,-306.53 3842.94,-309.81 3852.86,-313.53 3853.01,-306.53"/>
<text xml:space="preserve" text-anchor="middle" x="3817.22" y="-354.6" font-family="Times New Roman,serif" font-size="14.00">&#39;0&#39;,&#39;1&#39;,&#39;2&#39;,&#39;3&#39;,&#39;4&#39;,&#39;5&#39;,&#39;6&#39;,&#39;7&#39;,&#39;8&#39;,&#39;9&#39;,&#39;A&#39;,&#39;B&#39;,&#39;C&#39;,&#39;D&#39;,&#39;E&#39;,&#39;F&#39;,&#39;G&#39;,&#39;H&#39;,&#39;I&#39;,&#39;J&#39;,&#39;K&#39;,&#39;L&#39;,&#39;M&#39;,&#39;N&#39;,&#39;O&#39;,&#39;P&#39;,&#39;Q&#39;,&#39;R&#39;,&#39;S&#39;,&#39;T&#39;,&#39;U&#39;,&#39;V&#39;,&#39;W&#39;,&#39;X&#39;,&#39;Y&#39;,&#39;Z&#39;,&#39;_&#39;,&#39;a&#39;,&#39;b&#39;,&#39;c&#39;,&#39;d&#39;,&#39;e&#39;,&#39;f&#39;,&#39;g&#39;,&#39;h&#39;,&#39;i&#39;,&#39;j&#39;,&#39;k&#39;,&#39;l&#39;,&#39;m&#39;,&#39;n&#39;,&#39;o&#39;,&#39;p&#39;,&#39;q&#39;,&#39;r&#39;,&#39;s&#39;,&#39;t&#39;,&#39;u&#39;,&#39;v&#39;,&#39;w&#39;,&#39;x&#39;,&#39;y&#39;,&#39;z&#39;</text>
</g>
<!-- q1&#45;&gt;q5 -->
<g id="edge8" class="edge">
<title>q1&#45;&gt;q5</title>
<path fill="none" stroke="black" d="M3837.48,-194.1C4066.34,-192.04 6263.78,-172.3 6566.27,-169.58"/>
<polygon fill="black" stroke="black" points="6565.89,-173.08 6575.86,-169.49 6565.83,-166.08 6565.89,-173.08"/>
<text xml:space="preserve" text-anchor="middle" x="6546.85" y="-172.92" font-family="Times New Roman,serif" font-size="14.00">&#39;&#45;&#39;,&#39;&gt;&#39;</text>
</g>
<!-- q2&#45;&gt;q5 -->
<g id="edge6" class="edge">
<title>q2&#45;&gt;q5</title>
<path fill="none" stroke="black" d="M3837.59,-135.82C4067.85,-130.56 6278.75,-81.98 6559.6,-148.77 6563.17,-149.62 6566.79,-150.83 6570.31,-152.23"/>
<polygon fill="black" stroke="black" points="6568.59,-155.29 6579.13,-156.27 6571.5,-148.92 6568.59,-155.29"/>
<text xml:space="preserve" text-anchor="middle" x="6546.85" y="-151.97" font-family="Times New Roman,serif" font-size="14.00">&#39;+&#39;</text>
</g>
<!-- q3&#45;&gt;q5 -->
<g id="edge4" class="edge">
<title>q3&#45;&gt;q5</title>
<path fill="none" stroke="black" d="M3837.5,-75.92C4017.08,-54.57 5415.47,100.58 6516.1,-107.27 6536.42,-111.11 6542.52,-112.11 6559.6,-123.77 6566.73,-128.64 6573.48,-135 6579.36,-141.4"/>
<polygon fill="black" stroke="black" points="6576.64,-143.6 6585.82,-148.89 6581.94,-139.03 6576.64,-143.6"/>
<text xml:space="preserve" text-anchor="middle" x="6546.85" y="-126.97" font-family="Times New Roman,serif" font-size="14.00">&#39;*&#39;</text>
</g>
</g>
</svg>
