<?xml version="1.0" encoding="UTF-8" standalone="no"?>
<!DOCTYPE svg PUBLIC "-//W3C//DTD SVG 1.1//EN"
 "http://www.w3.org/Graphics/SVG/1.1/DTD/svg11.dtd">
<!-- Generated by graphviz version 14.0.5 (20251129.0259)
 -->
<!-- Title: FSM Pages: 1 -->
<svg width="1032pt" height="1127pt"
 viewBox="0.00 0.00 1032.00 1127.00" xmlns="http://www.w3.org/2000/svg" xmlns:xlink="http://www.w3.org/1999/xlink">
<g id="graph0" class="graph" transform="scale(1 1) rotate(0) translate(4 1123.24)">
<title>FSM</title>
<polygon fill="white" stroke="none" points="-4,4 -4,-1123.24 1027.86,-1123.24 1027.86,4 -4,4"/>
<!-- start -->
<g id="node1" class="node">
<title>start</title>
<ellipse fill="black" stroke="black" cx="1.8" cy="-513.74" rx="1.8" ry="1.8"/>
</g>
<!-- q0 -->
<g id="node2" class="node">
<title>q0</title>
<ellipse fill="none" stroke="black" cx="67.6" cy="-513.74" rx="27" ry="18"/>
<text xml:space="preserve" text-anchor="middle" x="67.6" y="-508.69" font-family="Times New Roman,serif" font-size="14.00">q0</text>
</g>
<!-- start&#45;&gt;q0 -->
<g id="edge1" class="edge">
<title>start&#45;&gt;q0</title>
<path fill="none" stroke="black" d="M3.91,-513.74C7.21,-513.74 17.46,-513.74 28.73,-513.74"/>
<polygon fill="black" stroke="black" points="28.62,-517.24 38.62,-513.74 28.62,-510.24 28.62,-517.24"/>
</g>
<!-- q45 -->
<g id="node3" class="node">
<title>q45</title>
<ellipse fill="none" stroke="black" cx="995.12" cy="-556.74" rx="24.74" ry="24.74"/>
<ellipse fill="none" stroke="black" cx="995.12" cy="-556.74" rx="28.74" ry="28.74"/>
<text xml:space="preserve" text-anchor="middle" x="995.12" y="-551.69" font-family="Times New Roman,serif" font-size="14.00">q45</text>
</g>
<!-- q0&#45;&gt;q45 -->
<g id="edge2" class="edge">
<title>q0&#45;&gt;q45</title>
<path fill="none" stroke="black" d="M68.95,-532.11C70.63,-611.56 79.31,-925.64 112.6,-1017.74 128.23,-1060.98 125.6,-1102.74 171.59,-1102.74 171.59,-1102.74 171.59,-1102.74 890.9,-1102.74 932.19,-1102.74 933,-1068.06 948.39,-1029.74 979.8,-951.48 990.21,-696.56 993.13,-597.05"/>
<polygon fill="black" stroke="black" points="996.62,-597.31 993.4,-587.22 989.62,-597.11 996.62,-597.31"/>
<text xml:space="preserve" text-anchor="middle" x="526.64" y="-1105.94" font-family="Times New Roman,serif" font-size="14.00">&#39;(&#39;,&#39;)&#39;,&#39;,&#39;,&#39;;&#39;,&#39;[&#39;,&#39;]&#39;,&#39;{&#39;,&#39;}&#39;</text>
</g>
<!-- q1 -->
<g id="node4" class="node">
<title>q1</title>
<ellipse fill="none" stroke="black" cx="235.46" cy="-1031.74" rx="20.13" ry="20.13"/>
<text xml:space="preserve" text-anchor="middle" x="235.46" y="-1026.69" font-family="Times New Roman,serif" font-size="14.00">q1</text>
</g>
<!-- q0&#45;&gt;q1 -->
<g id="edge7" class="edge">
<title>q0&#45;&gt;q1</title>
<path fill="none" stroke="black" d="M69.22,-532.08C72.16,-614.01 85.58,-944 112.6,-980.74 134.1,-1009.96 175.56,-1022.54 204.1,-1027.89"/>
<polygon fill="black" stroke="black" points="203.15,-1031.28 213.59,-1029.47 204.3,-1024.38 203.15,-1031.28"/>
<text xml:space="preserve" text-anchor="middle" x="121.22" y="-1000.1" font-family="Times New Roman,serif" font-size="14.00">&#39;&#45;&#39;</text>
</g>
<!-- q2 -->
<g id="node5" class="node">
<title>q2</title>
<ellipse fill="none" stroke="black" cx="620" cy="-971.74" rx="20.13" ry="20.13"/>
<text xml:space="preserve" text-anchor="middle" x="620" y="-966.69" font-family="Times New Roman,serif" font-size="14.00">q2</text>
</g>
<!-- q0&#45;&gt;q2 -->
<g id="edge12" class="edge">
<title>q0&#45;&gt;q2</title>
<path fill="none" stroke="black" d="M68.77,-532.06C70.06,-616.81 80.85,-966.74 171.59,-966.74 171.59,-966.74 171.59,-966.74 434.27,-966.74 488.46,-966.74 551.56,-968.91 588.22,-970.4"/>
<polygon fill="black" stroke="black" points="587.94,-973.89 598.08,-970.8 588.23,-966.89 587.94,-973.89"/>
<text xml:space="preserve" text-anchor="middle" x="298.32" y="-969.94" font-family="Times New Roman,serif" font-size="14.00">&#39;E&#39;</text>
</g>
<!-- q5 -->
<g id="node8" class="node">
<title>q5</title>
<ellipse fill="none" stroke="black" cx="526.64" cy="-907.74" rx="20.13" ry="20.13"/>
<text xml:space="preserve" text-anchor="middle" x="526.64" y="-902.69" font-family="Times New Roman,serif" font-size="14.00">q5</text>
</g>
<!-- q0&#45;&gt;q5 -->
<g id="edge5" class="edge">
<title>q0&#45;&gt;q5</title>
<path fill="none" stroke="black" d="M68.86,-531.94C70.06,-595.13 76.72,-804.1 112.6,-858.74 129.33,-884.22 141.1,-893.74 171.59,-893.74 171.59,-893.74 171.59,-893.74 366.8,-893.74 411.72,-893.74 463.51,-899.36 495.42,-903.48"/>
<polygon fill="black" stroke="black" points="494.74,-906.92 505.11,-904.77 495.66,-899.98 494.74,-906.92"/>
<text xml:space="preserve" text-anchor="middle" x="235.46" y="-896.94" font-family="Times New Roman,serif" font-size="14.00">&#39;+&#39;</text>
</g>
<!-- q6 -->
<g id="node9" class="node">
<title>q6</title>
<ellipse fill="none" stroke="black" cx="687.47" cy="-853.74" rx="20.13" ry="20.13"/>
<text xml:space="preserve" text-anchor="middle" x="687.47" y="-848.69" font-family="Times New Roman,serif" font-size="14.00">q6</text>
</g>
<!-- q0&#45;&gt;q6 -->
<g id="edge3" class="edge">
<title>q0&#45;&gt;q6</title>
<path fill="none" stroke="black" d="M69.53,-531.96C72.68,-588 84.34,-756.81 112.6,-802.74 129.46,-830.15 139.4,-844.74 171.59,-844.74 171.59,-844.74 171.59,-844.74 527.64,-844.74 572.21,-844.74 623.71,-848.31 655.69,-850.96"/>
<polygon fill="black" stroke="black" points="655.16,-854.43 665.42,-851.79 655.76,-847.45 655.16,-854.43"/>
<text xml:space="preserve" text-anchor="middle" x="298.32" y="-847.94" font-family="Times New Roman,serif" font-size="14.00">&#39;*&#39;</text>
</g>
<!-- q7 -->
<g id="node10" class="node">
<title>q7</title>
<ellipse fill="none" stroke="black" cx="754.95" cy="-788.74" rx="20.13" ry="20.13"/>
<text xml:space="preserve" text-anchor="middle" x="754.95" y="-783.69" font-family="Times New Roman,serif" font-size="14.00">q7</text>
</g>
<!-- q0&#45;&gt;q7 -->
<g id="edge18" class="edge">
<title>q0&#45;&gt;q7</title>
<path fill="none" stroke="black" d="M71.32,-531.78C81.06,-592.96 116.53,-788.74 171.59,-788.74 171.59,-788.74 171.59,-788.74 621,-788.74 656.03,-788.74 696.25,-788.74 723.19,-788.74"/>
<polygon fill="black" stroke="black" points="723.06,-792.24 733.06,-788.74 723.06,-785.24 723.06,-792.24"/>
<text xml:space="preserve" text-anchor="middle" x="365.8" y="-791.94" font-family="Times New Roman,serif" font-size="14.00">&#39;N&#39;</text>
</g>
<!-- q9 -->
<g id="node12" class="node">
<title>q9</title>
<ellipse fill="none" stroke="black" cx="172.59" cy="-639.74" rx="20.13" ry="20.13"/>
<text xml:space="preserve" text-anchor="middle" x="172.59" y="-634.69" font-family="Times New Roman,serif" font-size="14.00">q9</text>
</g>
<!-- q0&#45;&gt;q9 -->
<g id="edge20" class="edge">
<title>q0&#45;&gt;q9</title>
<path fill="none" stroke="black" d="M78.37,-530.64C86.75,-544.6 99.51,-564.66 112.6,-580.74 123.6,-594.25 137.29,-608.1 148.72,-618.98"/>
<polygon fill="black" stroke="black" points="146.13,-621.35 155.82,-625.63 150.91,-616.24 146.13,-621.35"/>
<text xml:space="preserve" text-anchor="middle" x="121.22" y="-602.8" font-family="Times New Roman,serif" font-size="14.00">&#39;P&#39;</text>
</g>
<!-- q17 -->
<g id="node20" class="node">
<title>q17</title>
<ellipse fill="none" stroke="black" cx="433.27" cy="-566.74" rx="24.74" ry="24.74"/>
<text xml:space="preserve" text-anchor="middle" x="433.27" y="-561.69" font-family="Times New Roman,serif" font-size="14.00">q17</text>
</g>
<!-- q0&#45;&gt;q17 -->
<g id="edge21" class="edge">
<title>q0&#45;&gt;q17</title>
<path fill="none" stroke="black" d="M89.05,-525.15C104.64,-533.19 126.91,-543.27 147.85,-547.74 236.05,-566.54 342.79,-568.2 396.99,-567.6"/>
<polygon fill="black" stroke="black" points="396.9,-571.1 406.85,-567.45 396.8,-564.1 396.9,-571.1"/>
<text xml:space="preserve" text-anchor="middle" x="235.46" y="-565.97" font-family="Times New Roman,serif" font-size="14.00">&#39;S&#39;</text>
</g>
<!-- q23 -->
<g id="node26" class="node">
<title>q23</title>
<ellipse fill="none" stroke="black" cx="172.59" cy="-513.74" rx="24.74" ry="24.74"/>
<text xml:space="preserve" text-anchor="middle" x="172.59" y="-508.69" font-family="Times New Roman,serif" font-size="14.00">q23</text>
</g>
<!-- q0&#45;&gt;q23 -->
<g id="edge22" class="edge">
<title>q0&#45;&gt;q23</title>
<path fill="none" stroke="black" d="M94.85,-513.74C107.39,-513.74 122.58,-513.74 136.13,-513.74"/>
<polygon fill="black" stroke="black" points="135.98,-517.24 145.98,-513.74 135.98,-510.24 135.98,-517.24"/>
<text xml:space="preserve" text-anchor="middle" x="121.22" y="-516.94" font-family="Times New Roman,serif" font-size="14.00">&#39;V&#39;</text>
</g>
<!-- q25 -->
<g id="node28" class="node">
<title>q25</title>
<ellipse fill="none" stroke="black" cx="172.59" cy="-446.74" rx="24.74" ry="24.74"/>
<text xml:space="preserve" text-anchor="middle" x="172.59" y="-441.69" font-family="Times New Roman,serif" font-size="14.00">q25</text>
</g>
<!-- q0&#45;&gt;q25 -->
<g id="edge13" class="edge">
<title>q0&#45;&gt;q25</title>
<path fill="none" stroke="black" d="M87.49,-501.45C102.78,-491.5 124.58,-477.32 142.15,-465.89"/>
<polygon fill="black" stroke="black" points="143.67,-469.08 150.14,-460.69 139.85,-463.21 143.67,-469.08"/>
<text xml:space="preserve" text-anchor="middle" x="121.22" y="-487.45" font-family="Times New Roman,serif" font-size="14.00">&#39;F&#39;</text>
</g>
<!-- q30 -->
<g id="node33" class="node">
<title>q30</title>
<ellipse fill="none" stroke="black" cx="620" cy="-389.74" rx="24.74" ry="24.74"/>
<text xml:space="preserve" text-anchor="middle" x="620" y="-384.69" font-family="Times New Roman,serif" font-size="14.00">q30</text>
</g>
<!-- q0&#45;&gt;q30 -->
<g id="edge14" class="edge">
<title>q0&#45;&gt;q30</title>
<path fill="none" stroke="black" d="M74.2,-495.85C86.11,-461.74 117.42,-390.74 171.59,-390.74 171.59,-390.74 171.59,-390.74 434.27,-390.74 486.22,-390.74 546.38,-390.34 583.57,-390.04"/>
<polygon fill="black" stroke="black" points="583.31,-393.55 593.28,-389.96 583.25,-386.55 583.31,-393.55"/>
<text xml:space="preserve" text-anchor="middle" x="298.32" y="-393.94" font-family="Times New Roman,serif" font-size="14.00">&#39;G&#39;</text>
</g>
<!-- q33 -->
<g id="node36" class="node">
<title>q33</title>
<ellipse fill="none" stroke="black" cx="433.27" cy="-313.74" rx="24.74" ry="24.74"/>
<text xml:space="preserve" text-anchor="middle" x="433.27" y="-308.69" font-family="Times New Roman,serif" font-size="14.00">q33</text>
</g>
<!-- q0&#45;&gt;q33 -->
<g id="edge15" class="edge">
<title>q0&#45;&gt;q33</title>
<path fill="none" stroke="black" d="M68.89,-495.54C70.39,-465.95 77.89,-407.63 112.6,-376.74 193.55,-304.69 332.37,-305.19 397.11,-310.01"/>
<polygon fill="black" stroke="black" points="396.54,-313.47 406.8,-310.82 397.12,-306.5 396.54,-313.47"/>
<text xml:space="preserve" text-anchor="middle" x="235.46" y="-327.17" font-family="Times New Roman,serif" font-size="14.00">&#39;I&#39;</text>
</g>
<!-- q37 -->
<g id="node40" class="node">
<title>q37</title>
<ellipse fill="none" stroke="black" cx="172.59" cy="-284.74" rx="24.74" ry="24.74"/>
<text xml:space="preserve" text-anchor="middle" x="172.59" y="-279.69" font-family="Times New Roman,serif" font-size="14.00">q37</text>
</g>
<!-- q0&#45;&gt;q37 -->
<g id="edge11" class="edge">
<title>q0&#45;&gt;q37</title>
<path fill="none" stroke="black" d="M70.45,-495.59C75.27,-451.41 89.49,-339.74 112.6,-311.24 118.95,-303.4 128.11,-297.8 137.32,-293.83"/>
<polygon fill="black" stroke="black" points="138.41,-297.16 146.58,-290.41 135.99,-290.6 138.41,-297.16"/>
<text xml:space="preserve" text-anchor="middle" x="121.22" y="-314.44" font-family="Times New Roman,serif" font-size="14.00">&#39;D&#39;</text>
</g>
<!-- q39 -->
<g id="node42" class="node">
<title>q39</title>
<ellipse fill="none" stroke="black" cx="172.59" cy="-209.74" rx="24.74" ry="24.74"/>
<text xml:space="preserve" text-anchor="middle" x="172.59" y="-204.69" font-family="Times New Roman,serif" font-size="14.00">q39</text>
</g>
<!-- q0&#45;&gt;q39 -->
<g id="edge17" class="edge">
<title>q0&#45;&gt;q39</title>
<path fill="none" stroke="black" d="M68.77,-495.53C69.81,-454.47 76.19,-352.41 112.6,-277.24 120.54,-260.85 133.54,-245.34 145.32,-233.33"/>
<polygon fill="black" stroke="black" points="147.43,-236.17 152.12,-226.67 142.53,-231.17 147.43,-236.17"/>
<text xml:space="preserve" text-anchor="middle" x="121.22" y="-280.44" font-family="Times New Roman,serif" font-size="14.00">&#39;M&#39;</text>
</g>
<!-- q41 -->
<g id="node44" class="node">
<title>q41</title>
<ellipse fill="none" stroke="black" cx="365.8" cy="-117.74" rx="24.74" ry="24.74"/>
<text xml:space="preserve" text-anchor="middle" x="365.8" y="-112.69" font-family="Times New Roman,serif" font-size="14.00">q41</text>
</g>
<!-- q0&#45;&gt;q41 -->
<g id="edge16" class="edge">
<title>q0&#45;&gt;q41</title>
<path fill="none" stroke="black" d="M69.82,-495.52C74.67,-429.33 94.94,-203.11 147.85,-159.24 199.72,-116.23 282.59,-112.71 329.47,-114.73"/>
<polygon fill="black" stroke="black" points="329.16,-118.22 339.34,-115.28 329.55,-111.23 329.16,-118.22"/>
<text xml:space="preserve" text-anchor="middle" x="172.59" y="-162.44" font-family="Times New Roman,serif" font-size="14.00">&#39;L&#39;</text>
</g>
<!-- q42 -->
<g id="node45" class="node">
<title>q42</title>
<ellipse fill="none" stroke="black" cx="172.59" cy="-74.74" rx="24.74" ry="24.74"/>
<text xml:space="preserve" text-anchor="middle" x="172.59" y="-69.69" font-family="Times New Roman,serif" font-size="14.00">q42</text>
</g>
<!-- q0&#45;&gt;q42 -->
<g id="edge10" class="edge">
<title>q0&#45;&gt;q42</title>
<path fill="none" stroke="black" d="M68.34,-495.62C67.64,-425.13 68.27,-169.98 112.6,-105.24 118.72,-96.3 128.3,-89.81 137.97,-85.18"/>
<polygon fill="black" stroke="black" points="139.07,-88.52 146.95,-81.44 136.37,-82.05 139.07,-88.52"/>
<text xml:space="preserve" text-anchor="middle" x="121.22" y="-108.44" font-family="Times New Roman,serif" font-size="14.00">&#39;A&#39;</text>
</g>
<!-- q44 -->
<g id="node47" class="node">
<title>q44</title>
<ellipse fill="none" stroke="black" cx="822.42" cy="-24.74" rx="24.74" ry="24.74"/>
<text xml:space="preserve" text-anchor="middle" x="822.42" y="-19.69" font-family="Times New Roman,serif" font-size="14.00">q44</text>
</g>
<!-- q0&#45;&gt;q44 -->
<g id="edge19" class="edge">
<title>q0&#45;&gt;q44</title>
<path fill="none" stroke="black" d="M69.13,-495.73C71.41,-424.45 81.79,-162.11 112.6,-85.74 127.07,-49.86 132.9,-21.74 171.59,-21.74 171.59,-21.74 171.59,-21.74 688.47,-21.74 721.51,-21.74 759.15,-22.67 785.93,-23.5"/>
<polygon fill="black" stroke="black" points="785.79,-27 795.9,-23.82 786.01,-20 785.79,-27"/>
<text xml:space="preserve" text-anchor="middle" x="365.8" y="-24.94" font-family="Times New Roman,serif" font-size="14.00">&#39;O&#39;</text>
</g>
<!-- q1&#45;&gt;q45 -->
<g id="edge8" class="edge">
<title>q1&#45;&gt;q45</title>
<path fill="none" stroke="black" d="M254.92,-1037.9C279.65,-1045.59 325.01,-1057.74 364.8,-1057.74 364.8,-1057.74 364.8,-1057.74 890.9,-1057.74 927.51,-1057.74 932.87,-1031.9 948.39,-998.74 981.51,-927.96 990.85,-692.41 993.31,-597.19"/>
<polygon fill="black" stroke="black" points="996.8,-597.36 993.55,-587.28 989.81,-597.19 996.8,-597.36"/>
<text xml:space="preserve" text-anchor="middle" x="620" y="-1060.94" font-family="Times New Roman,serif" font-size="14.00">&#39;&#45;&#39;,&#39;&gt;&#39;</text>
</g>
<!-- q2&#45;&gt;q45 -->
<g id="edge36" class="edge">
<title>q2&#45;&gt;q45</title>
<path fill="none" stroke="black" d="M637.9,-981.93C645.28,-985.93 654.19,-990.17 662.74,-992.74 691.66,-1001.43 700.06,-998.96 730.21,-1000.74 827.75,-1006.5 901.32,-1059.36 948.39,-973.74 983.68,-909.54 991.75,-688.71 993.58,-597.08"/>
<polygon fill="black" stroke="black" points="997.08,-597.38 993.76,-587.31 990.08,-597.25 997.08,-597.38"/>
<text xml:space="preserve" text-anchor="middle" x="822.42" y="-1023.29" font-family="Times New Roman,serif" font-size="14.00">&#39;g&#39;</text>
</g>
<!-- q3 -->
<g id="node6" class="node">
<title>q3</title>
<ellipse fill="none" stroke="black" cx="754.95" cy="-971.74" rx="20.13" ry="20.13"/>
<text xml:space="preserve" text-anchor="middle" x="754.95" y="-966.69" font-family="Times New Roman,serif" font-size="14.00">q3</text>
</g>
<!-- q2&#45;&gt;q3 -->
<g id="edge43" class="edge">
<title>q2&#45;&gt;q3</title>
<path fill="none" stroke="black" d="M640.62,-971.74C662.44,-971.74 697.98,-971.74 723.44,-971.74"/>
<polygon fill="black" stroke="black" points="723.17,-975.24 733.17,-971.74 723.17,-968.24 723.17,-975.24"/>
<text xml:space="preserve" text-anchor="middle" x="687.47" y="-974.94" font-family="Times New Roman,serif" font-size="14.00">&#39;l&#39;</text>
</g>
<!-- q4 -->
<g id="node7" class="node">
<title>q4</title>
<ellipse fill="none" stroke="black" cx="889.9" cy="-971.74" rx="20.13" ry="20.13"/>
<text xml:space="preserve" text-anchor="middle" x="889.9" y="-966.69" font-family="Times New Roman,serif" font-size="14.00">q4</text>
</g>
<!-- q3&#45;&gt;q4 -->
<g id="edge60" class="edge">
<title>q3&#45;&gt;q4</title>
<path fill="none" stroke="black" d="M775.57,-971.74C797.39,-971.74 832.92,-971.74 858.39,-971.74"/>
<polygon fill="black" stroke="black" points="858.12,-975.24 868.12,-971.74 858.12,-968.24 858.12,-975.24"/>
<text xml:space="preserve" text-anchor="middle" x="822.42" y="-974.94" font-family="Times New Roman,serif" font-size="14.00">&#39;s&#39;</text>
</g>
<!-- q4&#45;&gt;q45 -->
<g id="edge31" class="edge">
<title>q4&#45;&gt;q45</title>
<path fill="none" stroke="black" d="M909.59,-965.72C922.68,-960.48 939.39,-951.53 948.39,-937.74 984.54,-882.32 992.13,-683.48 993.71,-597.18"/>
<polygon fill="black" stroke="black" points="997.21,-597.35 993.87,-587.29 990.21,-597.23 997.21,-597.35"/>
<text xml:space="preserve" text-anchor="middle" x="940.51" y="-956.21" font-family="Times New Roman,serif" font-size="14.00">&#39;e&#39;</text>
</g>
<!-- q5&#45;&gt;q45 -->
<g id="edge6" class="edge">
<title>q5&#45;&gt;q45</title>
<path fill="none" stroke="black" d="M546.66,-911.59C606.8,-922.66 795.78,-948.81 914.64,-867.74 934.13,-854.44 938.58,-848.21 948.39,-826.74 983.15,-750.58 991.73,-651.46 993.7,-596.98"/>
<polygon fill="black" stroke="black" points="997.19,-597.35 993.99,-587.26 990.19,-597.15 997.19,-597.35"/>
<text xml:space="preserve" text-anchor="middle" x="754.95" y="-926.36" font-family="Times New Roman,serif" font-size="14.00">&#39;+&#39;</text>
</g>
<!-- q6&#45;&gt;q45 -->
<g id="edge4" class="edge">
<title>q6&#45;&gt;q45</title>
<path fill="none" stroke="black" d="M707.27,-858.33C748.05,-867.21 846.5,-882.71 914.64,-844.74 938.06,-831.69 938.15,-819.52 948.39,-794.74 975.7,-728.64 986.9,-645.38 991.35,-596.9"/>
<polygon fill="black" stroke="black" points="994.82,-597.42 992.19,-587.15 987.85,-596.82 994.82,-597.42"/>
<text xml:space="preserve" text-anchor="middle" x="822.42" y="-872.31" font-family="Times New Roman,serif" font-size="14.00">&#39;*&#39;</text>
</g>
<!-- q7&#45;&gt;q45 -->
<g id="edge32" class="edge">
<title>q7&#45;&gt;q45</title>
<path fill="none" stroke="black" d="M772.89,-797.95C803.27,-813.11 868.18,-839.23 914.64,-813.74 953.16,-792.6 978,-663.64 988.46,-596.82"/>
<polygon fill="black" stroke="black" points="991.91,-597.4 989.96,-586.99 984.99,-596.35 991.91,-597.4"/>
<text xml:space="preserve" text-anchor="middle" x="889.9" y="-827.63" font-family="Times New Roman,serif" font-size="14.00">&#39;e&#39;</text>
</g>
<!-- q8 -->
<g id="node11" class="node">
<title>q8</title>
<ellipse fill="none" stroke="black" cx="889.9" cy="-784.74" rx="20.13" ry="20.13"/>
<text xml:space="preserve" text-anchor="middle" x="889.9" y="-779.69" font-family="Times New Roman,serif" font-size="14.00">q8</text>
</g>
<!-- q7&#45;&gt;q8 -->
<g id="edge50" class="edge">
<title>q7&#45;&gt;q8</title>
<path fill="none" stroke="black" d="M775.57,-788.15C797.39,-787.49 832.92,-786.42 858.39,-785.66"/>
<polygon fill="black" stroke="black" points="858.23,-789.16 868.12,-785.36 858.02,-782.16 858.23,-789.16"/>
<text xml:space="preserve" text-anchor="middle" x="822.42" y="-790.64" font-family="Times New Roman,serif" font-size="14.00">&#39;o&#39;</text>
</g>
<!-- q8&#45;&gt;q45 -->
<g id="edge62" class="edge">
<title>q8&#45;&gt;q45</title>
<path fill="none" stroke="black" d="M905.43,-771.45C918.44,-758.81 937.14,-738.67 948.39,-717.74 969.05,-679.27 981.21,-630.48 987.74,-596.75"/>
<polygon fill="black" stroke="black" points="991.17,-597.44 989.54,-586.98 984.28,-596.17 991.17,-597.44"/>
<text xml:space="preserve" text-anchor="middle" x="940.51" y="-743.12" font-family="Times New Roman,serif" font-size="14.00">&#39;t&#39;</text>
</g>
<!-- q10 -->
<g id="node13" class="node">
<title>q10</title>
<ellipse fill="none" stroke="black" cx="298.32" cy="-668.74" rx="24.74" ry="24.74"/>
<text xml:space="preserve" text-anchor="middle" x="298.32" y="-663.69" font-family="Times New Roman,serif" font-size="14.00">q10</text>
</g>
<!-- q9&#45;&gt;q10 -->
<g id="edge55" class="edge">
<title>q9&#45;&gt;q10</title>
<path fill="none" stroke="black" d="M192.65,-644.21C211.24,-648.56 239.94,-655.29 262.59,-660.6"/>
<polygon fill="black" stroke="black" points="261.79,-664 272.32,-662.88 263.39,-657.19 261.79,-664"/>
<text xml:space="preserve" text-anchor="middle" x="235.46" y="-661.73" font-family="Times New Roman,serif" font-size="14.00">&#39;r&#39;</text>
</g>
<!-- q11 -->
<g id="node14" class="node">
<title>q11</title>
<ellipse fill="none" stroke="black" cx="433.27" cy="-735.74" rx="24.74" ry="24.74"/>
<text xml:space="preserve" text-anchor="middle" x="433.27" y="-730.69" font-family="Times New Roman,serif" font-size="14.00">q11</text>
</g>
<!-- q10&#45;&gt;q11 -->
<g id="edge51" class="edge">
<title>q10&#45;&gt;q11</title>
<path fill="none" stroke="black" d="M320.98,-679.65C342.52,-690.5 375.8,-707.28 400.36,-719.66"/>
<polygon fill="black" stroke="black" points="398.77,-722.77 409.28,-724.15 401.92,-716.52 398.77,-722.77"/>
<text xml:space="preserve" text-anchor="middle" x="365.8" y="-717.27" font-family="Times New Roman,serif" font-size="14.00">&#39;o&#39;</text>
</g>
<!-- q15 -->
<g id="node18" class="node">
<title>q15</title>
<ellipse fill="none" stroke="black" cx="433.27" cy="-668.74" rx="24.74" ry="24.74"/>
<text xml:space="preserve" text-anchor="middle" x="433.27" y="-663.69" font-family="Times New Roman,serif" font-size="14.00">q15</text>
</g>
<!-- q10&#45;&gt;q15 -->
<g id="edge39" class="edge">
<title>q10&#45;&gt;q15</title>
<path fill="none" stroke="black" d="M323.4,-668.74C343.92,-668.74 373.69,-668.74 396.91,-668.74"/>
<polygon fill="black" stroke="black" points="396.86,-672.24 406.86,-668.74 396.86,-665.24 396.86,-672.24"/>
<text xml:space="preserve" text-anchor="middle" x="365.8" y="-671.94" font-family="Times New Roman,serif" font-size="14.00">&#39;i&#39;</text>
</g>
<!-- q12 -->
<g id="node15" class="node">
<title>q12</title>
<ellipse fill="none" stroke="black" cx="620" cy="-735.74" rx="24.74" ry="24.74"/>
<text xml:space="preserve" text-anchor="middle" x="620" y="-730.69" font-family="Times New Roman,serif" font-size="14.00">q12</text>
</g>
<!-- q11&#45;&gt;q12 -->
<g id="edge37" class="edge">
<title>q11&#45;&gt;q12</title>
<path fill="none" stroke="black" d="M458.42,-735.74C490.37,-735.74 546.91,-735.74 583.66,-735.74"/>
<polygon fill="black" stroke="black" points="583.33,-739.24 593.33,-735.74 583.33,-732.24 583.33,-739.24"/>
<text xml:space="preserve" text-anchor="middle" x="526.64" y="-738.94" font-family="Times New Roman,serif" font-size="14.00">&#39;g&#39;</text>
</g>
<!-- q13 -->
<g id="node16" class="node">
<title>q13</title>
<ellipse fill="none" stroke="black" cx="754.95" cy="-723.74" rx="24.74" ry="24.74"/>
<text xml:space="preserve" text-anchor="middle" x="754.95" y="-718.69" font-family="Times New Roman,serif" font-size="14.00">q13</text>
</g>
<!-- q12&#45;&gt;q13 -->
<g id="edge56" class="edge">
<title>q12&#45;&gt;q13</title>
<path fill="none" stroke="black" d="M645.07,-733.56C665.59,-731.71 695.36,-729.03 718.59,-726.93"/>
<polygon fill="black" stroke="black" points="718.9,-730.42 728.54,-726.03 718.27,-723.44 718.9,-730.42"/>
<text xml:space="preserve" text-anchor="middle" x="687.47" y="-735.06" font-family="Times New Roman,serif" font-size="14.00">&#39;r&#39;</text>
</g>
<!-- q14 -->
<g id="node17" class="node">
<title>q14</title>
<ellipse fill="none" stroke="black" cx="889.9" cy="-721.74" rx="24.74" ry="24.74"/>
<text xml:space="preserve" text-anchor="middle" x="889.9" y="-716.69" font-family="Times New Roman,serif" font-size="14.00">q14</text>
</g>
<!-- q13&#45;&gt;q14 -->
<g id="edge24" class="edge">
<title>q13&#45;&gt;q14</title>
<path fill="none" stroke="black" d="M780.02,-723.38C800.54,-723.07 830.31,-722.62 853.54,-722.27"/>
<polygon fill="black" stroke="black" points="853.54,-725.77 863.49,-722.12 853.44,-718.77 853.54,-725.77"/>
<text xml:space="preserve" text-anchor="middle" x="822.42" y="-726.29" font-family="Times New Roman,serif" font-size="14.00">&#39;a&#39;</text>
</g>
<!-- q14&#45;&gt;q45 -->
<g id="edge44" class="edge">
<title>q14&#45;&gt;q45</title>
<path fill="none" stroke="black" d="M912.81,-711.22C924.76,-704.52 938.98,-694.82 948.39,-682.74 968.06,-657.46 979.8,-622.95 986.45,-596.43"/>
<polygon fill="black" stroke="black" points="989.85,-597.25 988.73,-586.71 983.04,-595.65 989.85,-597.25"/>
<text xml:space="preserve" text-anchor="middle" x="940.51" y="-700.55" font-family="Times New Roman,serif" font-size="14.00">&#39;m&#39;</text>
</g>
<!-- q16 -->
<g id="node19" class="node">
<title>q16</title>
<ellipse fill="none" stroke="black" cx="687.47" cy="-678.74" rx="24.74" ry="24.74"/>
<text xml:space="preserve" text-anchor="middle" x="687.47" y="-673.69" font-family="Times New Roman,serif" font-size="14.00">q16</text>
</g>
<!-- q15&#45;&gt;q16 -->
<g id="edge45" class="edge">
<title>q15&#45;&gt;q16</title>
<path fill="none" stroke="black" d="M458.46,-669.7C503.18,-671.47 598.98,-675.27 651.04,-677.33"/>
<polygon fill="black" stroke="black" points="650.72,-680.82 660.85,-677.72 651,-673.83 650.72,-680.82"/>
<text xml:space="preserve" text-anchor="middle" x="526.64" y="-677.58" font-family="Times New Roman,serif" font-size="14.00">&#39;n&#39;</text>
</g>
<!-- q16&#45;&gt;q45 -->
<g id="edge63" class="edge">
<title>q16&#45;&gt;q45</title>
<path fill="none" stroke="black" d="M712.56,-680.95C755.77,-683.83 848.13,-684.87 914.64,-649.74 939.76,-636.46 960.34,-611.66 974.26,-591"/>
<polygon fill="black" stroke="black" points="977.05,-593.13 979.54,-582.83 971.17,-589.33 977.05,-593.13"/>
<text xml:space="preserve" text-anchor="middle" x="822.42" y="-683.36" font-family="Times New Roman,serif" font-size="14.00">&#39;t&#39;</text>
</g>
<!-- q18 -->
<g id="node21" class="node">
<title>q18</title>
<ellipse fill="none" stroke="black" cx="620" cy="-629.74" rx="24.74" ry="24.74"/>
<text xml:space="preserve" text-anchor="middle" x="620" y="-624.69" font-family="Times New Roman,serif" font-size="14.00">q18</text>
</g>
<!-- q17&#45;&gt;q18 -->
<g id="edge64" class="edge">
<title>q17&#45;&gt;q18</title>
<path fill="none" stroke="black" d="M455.66,-577.77C462.11,-580.88 469.27,-584.13 476.01,-586.74 512.4,-600.83 555.43,-613.21 584.71,-621.03"/>
<polygon fill="black" stroke="black" points="583.57,-624.35 594.13,-623.51 585.35,-617.58 583.57,-624.35"/>
<text xml:space="preserve" text-anchor="middle" x="526.64" y="-621.34" font-family="Times New Roman,serif" font-size="14.00">&#39;t&#39;</text>
</g>
<!-- q21 -->
<g id="node24" class="node">
<title>q21</title>
<ellipse fill="none" stroke="black" cx="620" cy="-562.74" rx="24.74" ry="24.74"/>
<text xml:space="preserve" text-anchor="middle" x="620" y="-557.69" font-family="Times New Roman,serif" font-size="14.00">q21</text>
</g>
<!-- q17&#45;&gt;q21 -->
<g id="edge28" class="edge">
<title>q17&#45;&gt;q21</title>
<path fill="none" stroke="black" d="M458.42,-566.21C490.37,-565.52 546.91,-564.3 583.66,-563.5"/>
<polygon fill="black" stroke="black" points="583.41,-567.01 593.33,-563.29 583.26,-560.01 583.41,-567.01"/>
<text xml:space="preserve" text-anchor="middle" x="526.64" y="-568.97" font-family="Times New Roman,serif" font-size="14.00">&#39;c&#39;</text>
</g>
<!-- q19 -->
<g id="node22" class="node">
<title>q19</title>
<ellipse fill="none" stroke="black" cx="754.95" cy="-615.74" rx="24.74" ry="24.74"/>
<text xml:space="preserve" text-anchor="middle" x="754.95" y="-610.69" font-family="Times New Roman,serif" font-size="14.00">q19</text>
</g>
<!-- q18&#45;&gt;q19 -->
<g id="edge25" class="edge">
<title>q18&#45;&gt;q19</title>
<path fill="none" stroke="black" d="M645.07,-627.2C665.69,-625.03 695.63,-621.88 718.91,-619.43"/>
<polygon fill="black" stroke="black" points="718.97,-622.94 728.55,-618.41 718.23,-615.98 718.97,-622.94"/>
<text xml:space="preserve" text-anchor="middle" x="687.47" y="-628.41" font-family="Times New Roman,serif" font-size="14.00">&#39;a&#39;</text>
</g>
<!-- q20 -->
<g id="node23" class="node">
<title>q20</title>
<ellipse fill="none" stroke="black" cx="889.9" cy="-615.74" rx="24.74" ry="24.74"/>
<text xml:space="preserve" text-anchor="middle" x="889.9" y="-610.69" font-family="Times New Roman,serif" font-size="14.00">q20</text>
</g>
<!-- q19&#45;&gt;q20 -->
<g id="edge57" class="edge">
<title>q19&#45;&gt;q20</title>
<path fill="none" stroke="black" d="M780.02,-615.74C800.54,-615.74 830.31,-615.74 853.54,-615.74"/>
<polygon fill="black" stroke="black" points="853.49,-619.24 863.49,-615.74 853.49,-612.24 853.49,-619.24"/>
<text xml:space="preserve" text-anchor="middle" x="822.42" y="-618.94" font-family="Times New Roman,serif" font-size="14.00">&#39;r&#39;</text>
</g>
<!-- q20&#45;&gt;q45 -->
<g id="edge65" class="edge">
<title>q20&#45;&gt;q45</title>
<path fill="none" stroke="black" d="M911.79,-603.8C925.51,-595.95 943.79,-585.5 959.64,-576.44"/>
<polygon fill="black" stroke="black" points="961.38,-579.49 968.32,-571.48 957.9,-573.41 961.38,-579.49"/>
<text xml:space="preserve" text-anchor="middle" x="940.51" y="-594.72" font-family="Times New Roman,serif" font-size="14.00">&#39;t&#39;</text>
</g>
<!-- q22 -->
<g id="node25" class="node">
<title>q22</title>
<ellipse fill="none" stroke="black" cx="822.42" cy="-558.74" rx="24.74" ry="24.74"/>
<text xml:space="preserve" text-anchor="middle" x="822.42" y="-553.69" font-family="Times New Roman,serif" font-size="14.00">q22</text>
</g>
<!-- q21&#45;&gt;q22 -->
<g id="edge26" class="edge">
<title>q21&#45;&gt;q22</title>
<path fill="none" stroke="black" d="M645.17,-562.25C680.26,-561.55 745.49,-560.25 786,-559.44"/>
<polygon fill="black" stroke="black" points="786.03,-562.94 795.96,-559.25 785.89,-555.95 786.03,-562.94"/>
<text xml:space="preserve" text-anchor="middle" x="687.47" y="-565.07" font-family="Times New Roman,serif" font-size="14.00">&#39;a&#39;</text>
</g>
<!-- q22&#45;&gt;q45 -->
<g id="edge46" class="edge">
<title>q22&#45;&gt;q45</title>
<path fill="none" stroke="black" d="M847.52,-558.46C875.39,-558.13 921.67,-557.59 954.78,-557.2"/>
<polygon fill="black" stroke="black" points="954.42,-560.7 964.38,-557.09 954.34,-553.7 954.42,-560.7"/>
<text xml:space="preserve" text-anchor="middle" x="889.9" y="-561.43" font-family="Times New Roman,serif" font-size="14.00">&#39;n&#39;</text>
</g>
<!-- q24 -->
<g id="node27" class="node">
<title>q24</title>
<ellipse fill="none" stroke="black" cx="526.64" cy="-511.74" rx="24.74" ry="24.74"/>
<text xml:space="preserve" text-anchor="middle" x="526.64" y="-506.69" font-family="Times New Roman,serif" font-size="14.00">q24</text>
</g>
<!-- q23&#45;&gt;q24 -->
<g id="edge27" class="edge">
<title>q23&#45;&gt;q24</title>
<path fill="none" stroke="black" d="M197.79,-513.6C258.73,-513.25 418.76,-512.34 490.25,-511.94"/>
<polygon fill="black" stroke="black" points="490.24,-515.44 500.22,-511.88 490.2,-508.44 490.24,-515.44"/>
<text xml:space="preserve" text-anchor="middle" x="298.32" y="-516.36" font-family="Times New Roman,serif" font-size="14.00">&#39;a&#39;</text>
</g>
<!-- q24&#45;&gt;q45 -->
<g id="edge58" class="edge">
<title>q24&#45;&gt;q45</title>
<path fill="none" stroke="black" d="M551.81,-511.29C605.28,-510.62 737.58,-510.69 847.16,-524.74 884.54,-529.53 926.49,-539.09 955.97,-546.52"/>
<polygon fill="black" stroke="black" points="954.99,-549.88 965.55,-548.97 956.73,-543.1 954.99,-549.88"/>
<text xml:space="preserve" text-anchor="middle" x="754.95" y="-520.92" font-family="Times New Roman,serif" font-size="14.00">&#39;r&#39;</text>
</g>
<!-- q26 -->
<g id="node29" class="node">
<title>q26</title>
<ellipse fill="none" stroke="black" cx="298.32" cy="-450.74" rx="24.74" ry="24.74"/>
<text xml:space="preserve" text-anchor="middle" x="298.32" y="-445.69" font-family="Times New Roman,serif" font-size="14.00">q26</text>
</g>
<!-- q25&#45;&gt;q26 -->
<g id="edge40" class="edge">
<title>q25&#45;&gt;q26</title>
<path fill="none" stroke="black" d="M197.74,-447.52C215.96,-448.11 241.25,-448.92 261.78,-449.59"/>
<polygon fill="black" stroke="black" points="261.61,-453.08 271.72,-449.91 261.84,-446.09 261.61,-453.08"/>
<text xml:space="preserve" text-anchor="middle" x="235.46" y="-452.53" font-family="Times New Roman,serif" font-size="14.00">&#39;i&#39;</text>
</g>
<!-- q27 -->
<g id="node30" class="node">
<title>q27</title>
<ellipse fill="none" stroke="black" cx="433.27" cy="-452.74" rx="24.74" ry="24.74"/>
<text xml:space="preserve" text-anchor="middle" x="433.27" y="-447.69" font-family="Times New Roman,serif" font-size="14.00">q27</text>
</g>
<!-- q26&#45;&gt;q27 -->
<g id="edge47" class="edge">
<title>q26&#45;&gt;q27</title>
<path fill="none" stroke="black" d="M323.4,-451.1C343.92,-451.41 373.69,-451.86 396.91,-452.21"/>
<polygon fill="black" stroke="black" points="396.81,-455.7 406.86,-452.36 396.92,-448.71 396.81,-455.7"/>
<text xml:space="preserve" text-anchor="middle" x="365.8" y="-455.29" font-family="Times New Roman,serif" font-size="14.00">&#39;n&#39;</text>
</g>
<!-- q28 -->
<g id="node31" class="node">
<title>q28</title>
<ellipse fill="none" stroke="black" cx="620" cy="-456.74" rx="24.74" ry="24.74"/>
<text xml:space="preserve" text-anchor="middle" x="620" y="-451.69" font-family="Times New Roman,serif" font-size="14.00">q28</text>
</g>
<!-- q27&#45;&gt;q28 -->
<g id="edge41" class="edge">
<title>q27&#45;&gt;q28</title>
<path fill="none" stroke="black" d="M458.42,-453.26C490.37,-453.95 546.91,-455.18 583.66,-455.97"/>
<polygon fill="black" stroke="black" points="583.26,-459.46 593.33,-456.18 583.41,-452.47 583.26,-459.46"/>
<text xml:space="preserve" text-anchor="middle" x="526.64" y="-458.97" font-family="Times New Roman,serif" font-size="14.00">&#39;i&#39;</text>
</g>
<!-- q29 -->
<g id="node32" class="node">
<title>q29</title>
<ellipse fill="none" stroke="black" cx="822.42" cy="-465.74" rx="24.74" ry="24.74"/>
<text xml:space="preserve" text-anchor="middle" x="822.42" y="-460.69" font-family="Times New Roman,serif" font-size="14.00">q29</text>
</g>
<!-- q28&#45;&gt;q29 -->
<g id="edge61" class="edge">
<title>q28&#45;&gt;q29</title>
<path fill="none" stroke="black" d="M645.17,-457.82C680.26,-459.4 745.49,-462.33 786,-464.15"/>
<polygon fill="black" stroke="black" points="785.81,-467.64 795.96,-464.59 786.13,-460.65 785.81,-467.64"/>
<text xml:space="preserve" text-anchor="middle" x="687.47" y="-463.86" font-family="Times New Roman,serif" font-size="14.00">&#39;s&#39;</text>
</g>
<!-- q29&#45;&gt;q45 -->
<g id="edge38" class="edge">
<title>q29&#45;&gt;q45</title>
<path fill="none" stroke="black" d="M847.28,-465.76C874.61,-467.01 919.35,-472.92 948.39,-496.74 957.5,-504.21 965.86,-513.85 972.87,-523.2"/>
<polygon fill="black" stroke="black" points="969.87,-525.03 978.52,-531.14 975.57,-520.96 969.87,-525.03"/>
<text xml:space="preserve" text-anchor="middle" x="889.9" y="-481.01" font-family="Times New Roman,serif" font-size="14.00">&#39;h&#39;</text>
</g>
<!-- q30&#45;&gt;q45 -->
<g id="edge33" class="edge">
<title>q30&#45;&gt;q45</title>
<path fill="none" stroke="black" d="M643.19,-399.05C649.41,-401.29 656.25,-403.42 662.74,-404.74 702.96,-412.93 808.23,-402.23 847.16,-415.24 898.45,-432.38 910.81,-443.85 948.39,-482.74 959.15,-493.88 968.63,-507.97 976.13,-520.87"/>
<polygon fill="black" stroke="black" points="973.04,-522.51 980.97,-529.54 979.16,-519.11 973.04,-522.51"/>
<text xml:space="preserve" text-anchor="middle" x="822.42" y="-418.44" font-family="Times New Roman,serif" font-size="14.00">&#39;e&#39;</text>
</g>
<!-- q31 -->
<g id="node34" class="node">
<title>q31</title>
<ellipse fill="none" stroke="black" cx="754.95" cy="-372.74" rx="24.74" ry="24.74"/>
<text xml:space="preserve" text-anchor="middle" x="754.95" y="-367.69" font-family="Times New Roman,serif" font-size="14.00">q31</text>
</g>
<!-- q30&#45;&gt;q31 -->
<g id="edge52" class="edge">
<title>q30&#45;&gt;q31</title>
<path fill="none" stroke="black" d="M644.77,-386.7C665.34,-384.07 695.38,-380.23 718.74,-377.24"/>
<polygon fill="black" stroke="black" points="718.96,-380.74 728.44,-376 718.07,-373.8 718.96,-380.74"/>
<text xml:space="preserve" text-anchor="middle" x="687.47" y="-387.44" font-family="Times New Roman,serif" font-size="14.00">&#39;o&#39;</text>
</g>
<!-- q32 -->
<g id="node35" class="node">
<title>q32</title>
<ellipse fill="none" stroke="black" cx="889.9" cy="-366.74" rx="24.74" ry="24.74"/>
<text xml:space="preserve" text-anchor="middle" x="889.9" y="-361.69" font-family="Times New Roman,serif" font-size="14.00">q32</text>
</g>
<!-- q31&#45;&gt;q32 -->
<g id="edge66" class="edge">
<title>q31&#45;&gt;q32</title>
<path fill="none" stroke="black" d="M780.02,-371.65C800.54,-370.72 830.31,-369.38 853.54,-368.33"/>
<polygon fill="black" stroke="black" points="853.66,-371.83 863.49,-367.88 853.34,-364.84 853.66,-371.83"/>
<text xml:space="preserve" text-anchor="middle" x="822.42" y="-374" font-family="Times New Roman,serif" font-size="14.00">&#39;t&#39;</text>
</g>
<!-- q32&#45;&gt;q45 -->
<g id="edge53" class="edge">
<title>q32&#45;&gt;q45</title>
<path fill="none" stroke="black" d="M914.76,-370.86C926.4,-374.04 939.72,-379.59 948.39,-389.24 979.84,-424.24 989.94,-478.83 993.03,-516.12"/>
<polygon fill="black" stroke="black" points="989.54,-516.31 993.71,-526.05 996.52,-515.84 989.54,-516.31"/>
<text xml:space="preserve" text-anchor="middle" x="940.51" y="-392.44" font-family="Times New Roman,serif" font-size="14.00">&#39;o&#39;</text>
</g>
<!-- q33&#45;&gt;q45 -->
<g id="edge35" class="edge">
<title>q33&#45;&gt;q45</title>
<path fill="none" stroke="black" d="M458.48,-313.74C493.78,-313.74 561.43,-313.74 619,-313.74 619,-313.74 619,-313.74 890.9,-313.74 977.99,-313.74 992.66,-447.6 994.44,-516.62"/>
<polygon fill="black" stroke="black" points="990.94,-516.46 994.61,-526.39 997.94,-516.34 990.94,-516.46"/>
<text xml:space="preserve" text-anchor="middle" x="754.95" y="-316.94" font-family="Times New Roman,serif" font-size="14.00">&#39;f&#39;</text>
</g>
<!-- q34 -->
<g id="node37" class="node">
<title>q34</title>
<ellipse fill="none" stroke="black" cx="620" cy="-258.74" rx="24.74" ry="24.74"/>
<text xml:space="preserve" text-anchor="middle" x="620" y="-253.69" font-family="Times New Roman,serif" font-size="14.00">q34</text>
</g>
<!-- q33&#45;&gt;q34 -->
<g id="edge48" class="edge">
<title>q33&#45;&gt;q34</title>
<path fill="none" stroke="black" d="M452.26,-297.78C459.24,-292.37 467.58,-286.81 476.01,-283.24 510.67,-268.57 553.58,-262.68 583.3,-260.31"/>
<polygon fill="black" stroke="black" points="583.53,-263.81 593.27,-259.63 583.05,-256.82 583.53,-263.81"/>
<text xml:space="preserve" text-anchor="middle" x="526.64" y="-286.44" font-family="Times New Roman,serif" font-size="14.00">&#39;n&#39;</text>
</g>
<!-- q35 -->
<g id="node38" class="node">
<title>q35</title>
<ellipse fill="none" stroke="black" cx="754.95" cy="-252.74" rx="24.74" ry="24.74"/>
<text xml:space="preserve" text-anchor="middle" x="754.95" y="-247.69" font-family="Times New Roman,serif" font-size="14.00">q35</text>
</g>
<!-- q34&#45;&gt;q35 -->
<g id="edge67" class="edge">
<title>q34&#45;&gt;q35</title>
<path fill="none" stroke="black" d="M645.07,-257.65C665.59,-256.72 695.36,-255.38 718.59,-254.33"/>
<polygon fill="black" stroke="black" points="718.71,-257.83 728.54,-253.88 718.39,-250.84 718.71,-257.83"/>
<text xml:space="preserve" text-anchor="middle" x="687.47" y="-260" font-family="Times New Roman,serif" font-size="14.00">&#39;t&#39;</text>
</g>
<!-- q36 -->
<g id="node39" class="node">
<title>q36</title>
<ellipse fill="none" stroke="black" cx="889.9" cy="-260.74" rx="24.74" ry="24.74"/>
<text xml:space="preserve" text-anchor="middle" x="889.9" y="-255.69" font-family="Times New Roman,serif" font-size="14.00">q36</text>
</g>
<!-- q35&#45;&gt;q36 -->
<g id="edge23" class="edge">
<title>q35&#45;&gt;q36</title>
<path fill="none" stroke="black" d="M780.02,-254.19C800.54,-255.42 830.31,-257.21 853.54,-258.61"/>
<polygon fill="black" stroke="black" points="853.3,-262.1 863.49,-259.21 853.72,-255.11 853.3,-262.1"/>
<text xml:space="preserve" text-anchor="middle" x="822.42" y="-261.35" font-family="Times New Roman,serif" font-size="14.00">&#39;_&#39;</text>
</g>
<!-- q36&#45;&gt;q45 -->
<g id="edge9" class="edge">
<title>q36&#45;&gt;q45</title>
<path fill="none" stroke="black" d="M914.6,-264.36C926.48,-267.41 940.08,-273 948.39,-283.24 976.86,-318.33 988.17,-449.03 992.17,-516.24"/>
<polygon fill="black" stroke="black" points="988.67,-516.33 992.73,-526.12 995.66,-515.94 988.67,-516.33"/>
<text xml:space="preserve" text-anchor="middle" x="940.51" y="-286.44" font-family="Times New Roman,serif" font-size="14.00">&#39;4&#39;</text>
</g>
<!-- q38 -->
<g id="node41" class="node">
<title>q38</title>
<ellipse fill="none" stroke="black" cx="822.42" cy="-200.74" rx="24.74" ry="24.74"/>
<text xml:space="preserve" text-anchor="middle" x="822.42" y="-195.69" font-family="Times New Roman,serif" font-size="14.00">q38</text>
</g>
<!-- q37&#45;&gt;q38 -->
<g id="edge42" class="edge">
<title>q37&#45;&gt;q38</title>
<path fill="none" stroke="black" d="M197.32,-281.06C261.41,-271.19 443.36,-243.6 595.26,-224.74 662.56,-216.38 741.36,-208.43 785.93,-204.11"/>
<polygon fill="black" stroke="black" points="786.17,-207.6 795.78,-203.16 785.49,-200.64 786.17,-207.6"/>
<text xml:space="preserve" text-anchor="middle" x="433.27" y="-252.88" font-family="Times New Roman,serif" font-size="14.00">&#39;i&#39;</text>
</g>
<!-- q38&#45;&gt;q45 -->
<g id="edge68" class="edge">
<title>q38&#45;&gt;q45</title>
<path fill="none" stroke="black" d="M847.43,-197.64C867.02,-196.35 894.64,-197.47 914.64,-210.24 939.29,-225.97 938.43,-239.24 948.39,-266.74 979.33,-352.19 989.36,-459.3 992.59,-516.44"/>
<polygon fill="black" stroke="black" points="989.09,-516.53 993.11,-526.34 996.08,-516.17 989.09,-516.53"/>
<text xml:space="preserve" text-anchor="middle" x="889.9" y="-213.44" font-family="Times New Roman,serif" font-size="14.00">&#39;v&#39;</text>
</g>
<!-- q40 -->
<g id="node43" class="node">
<title>q40</title>
<ellipse fill="none" stroke="black" cx="365.8" cy="-171.74" rx="24.74" ry="24.74"/>
<text xml:space="preserve" text-anchor="middle" x="365.8" y="-166.69" font-family="Times New Roman,serif" font-size="14.00">q40</text>
</g>
<!-- q39&#45;&gt;q40 -->
<g id="edge54" class="edge">
<title>q39&#45;&gt;q40</title>
<path fill="none" stroke="black" d="M191.95,-194.07C198.84,-189.06 207.03,-184.09 215.32,-181.24 252.83,-168.34 298.7,-167.44 329.65,-168.82"/>
<polygon fill="black" stroke="black" points="329.05,-172.29 339.23,-169.35 329.44,-165.3 329.05,-172.29"/>
<text xml:space="preserve" text-anchor="middle" x="235.46" y="-184.44" font-family="Times New Roman,serif" font-size="14.00">&#39;o&#39;</text>
</g>
<!-- q40&#45;&gt;q45 -->
<g id="edge29" class="edge">
<title>q40&#45;&gt;q45</title>
<path fill="none" stroke="black" d="M390.53,-168.74C460.88,-160.48 674.17,-139.89 847.16,-169.74 878.53,-175.15 887.11,-177.76 914.64,-193.74 931.74,-203.66 938.93,-205.37 948.39,-222.74 975.57,-272.67 987.83,-439.17 992.17,-516.56"/>
<polygon fill="black" stroke="black" points="988.66,-516.44 992.69,-526.23 995.65,-516.06 988.66,-516.44"/>
<text xml:space="preserve" text-anchor="middle" x="687.47" y="-158.88" font-family="Times New Roman,serif" font-size="14.00">&#39;d&#39;</text>
</g>
<!-- q41&#45;&gt;q45 -->
<g id="edge34" class="edge">
<title>q41&#45;&gt;q45</title>
<path fill="none" stroke="black" d="M391.02,-117.74C422.16,-117.74 477.93,-117.74 525.64,-117.74 525.64,-117.74 525.64,-117.74 890.9,-117.74 972.31,-117.74 989.57,-407.42 993.18,-516.15"/>
<polygon fill="black" stroke="black" points="989.68,-516.19 993.49,-526.08 996.68,-515.98 989.68,-516.19"/>
<text xml:space="preserve" text-anchor="middle" x="687.47" y="-120.94" font-family="Times New Roman,serif" font-size="14.00">&#39;e&#39;</text>
</g>
<!-- q43 -->
<g id="node46" class="node">
<title>q43</title>
<ellipse fill="none" stroke="black" cx="687.47" cy="-69.74" rx="24.74" ry="24.74"/>
<text xml:space="preserve" text-anchor="middle" x="687.47" y="-64.69" font-family="Times New Roman,serif" font-size="14.00">q43</text>
</g>
<!-- q42&#45;&gt;q43 -->
<g id="edge49" class="edge">
<title>q42&#45;&gt;q43</title>
<path fill="none" stroke="black" d="M197.76,-73.49C222.7,-72.32 262.72,-70.74 297.32,-70.74 297.32,-70.74 297.32,-70.74 527.64,-70.74 569.94,-70.74 618.58,-70.38 650.77,-70.09"/>
<polygon fill="black" stroke="black" points="650.77,-73.59 660.74,-70 650.71,-66.59 650.77,-73.59"/>
<text xml:space="preserve" text-anchor="middle" x="365.8" y="-73.94" font-family="Times New Roman,serif" font-size="14.00">&#39;n&#39;</text>
</g>
<!-- q43&#45;&gt;q45 -->
<g id="edge30" class="edge">
<title>q43&#45;&gt;q45</title>
<path fill="none" stroke="black" d="M711.78,-64.31C763.08,-53.9 886.17,-37.61 948.39,-103.74 976.39,-133.5 988.99,-410.74 992.81,-516.24"/>
<polygon fill="black" stroke="black" points="989.3,-516.27 993.15,-526.14 996.3,-516.02 989.3,-516.27"/>
<text xml:space="preserve" text-anchor="middle" x="822.42" y="-60.28" font-family="Times New Roman,serif" font-size="14.00">&#39;d&#39;</text>
</g>
<!-- q44&#45;&gt;q45 -->
<g id="edge59" class="edge">
<title>q44&#45;&gt;q45</title>
<path fill="none" stroke="black" d="M847.57,-23.5C877.22,-23.48 926.27,-28.68 948.39,-60.74 974.03,-97.91 988.28,-404.66 992.65,-516.3"/>
<polygon fill="black" stroke="black" points="989.15,-516.34 993.03,-526.19 996.15,-516.07 989.15,-516.34"/>
<text xml:space="preserve" text-anchor="middle" x="889.9" y="-37.77" font-family="Times New Roman,serif" font-size="14.00">&#39;r&#39;</text>
</g>
</g>
</svg>
